<?xml version="1.0" standalone="no"?>
<svg version="1.0" xmlns="http://www.w3.org/2000/svg"
 width="512.000000pt" height="512.000000pt" viewBox="0 0 512.000000 512.000000"
 preserveAspectRatio="xMidYMid meet">

<g transform="translate(0.000000,512.000000) scale(0.100000,-0.100000)"
fill="#000000" stroke="none">
<path d="M2380 4794 c-196 -18 -455 -78 -628 -145 -673 -264 -1188 -845 -1361
-1535 -53 -211 -65 -318 -65 -554 0 -236 12 -343 65 -554 195 -779 819 -1407
1599 -1610 221 -57 327 -70 570 -70 236 0 343 12 554 65 779 195 1407 819
1610 1599 57 221 70 327 70 570 0 243 -13 349 -70 570 -223 858 -945 1507
-1829 1645 -97 15 -425 27 -515 19z m483 -664 c314 -61 597 -212 823 -438 236
-236 385 -518 451 -857 27 -138 24 -435 -6 -575 -70 -331 -212 -598 -440 -828
-232 -232 -519 -383 -856 -449 -138 -27 -435 -24 -575 6 -331 70 -598 212
-828 440 -228 228 -380 512 -444 834 -32 161 -32 433 0 594 64 322 213 602
440 829 258 258 584 418 946 464 115 14 366 4 489 -20z"/>
<path d="M2420 3834 c-298 -38 -551 -162 -761 -373 -188 -189 -299 -392 -355
-651 -26 -119 -26 -381 0 -500 55 -257 169 -466 355 -651 185 -186 394 -300
651 -355 119 -26 381 -26 500 0 259 56 462 167 651 355 186 185 300 394 355
651 26 119 26 381 0 500 -55 257 -169 466 -355 651 -185 185 -380 293 -631
350 -83 19 -331 33 -410 23z m255 -509 c54 -31 76 -60 151 -200 81 -152 149
-219 309 -305 144 -78 176 -104 205 -172 37 -87 12 -201 -58 -260 -16 -14 -83
-53 -148 -89 -158 -85 -227 -153 -308 -304 -75 -140 -97 -169 -150 -200 -89
-52 -200 -39 -275 34 -20 20 -66 90 -102 156 -88 164 -144 223 -289 300 -156
84 -190 111 -222 174 -37 72 -37 130 0 202 32 63 66 90 222 174 145 77 201
136 289 300 36 66 82 136 102 156 74 72 186 86 274 34z"/>
</g>
</svg>
