<svg id="ePCz9kDaALt1" xmlns="http://www.w3.org/2000/svg" xmlns:xlink="http://www.w3.org/1999/xlink" viewBox="0 0 512 512" shape-rendering="geometricPrecision" text-rendering="geometricPrecision" project-id="ae977126bf3648da8ca04947d213877d" export-id="ae5953d711304983b7ace31e7d4f9574" cached="false">
  <g transform="matrix(.1 0 0-.1 0 512)">
    <ellipse rx="132.666418" ry="132.666418" transform="matrix(11.477387 0 0 11.477387 2559.85825 2558.978114)" fill="#fff" stroke-width="0"/>
    <path d="M2330,4466c-241-32-409-83-625-191-383-192-666-474-861-860-351-695-241-1533,280-2127c247-283,603-499,971-589c661-162,1343,27,1820,505c752,754,752,1955,0,2712-283,285-636,467-1050,539-125,22-404,28-535,11Zm-55-1161c86-22,175-68,234-121l51-46l51,46c129,116,339,165,513,120c196-50,359-213,411-410c24-87,22-244-4-338-78-282-341-617-696-883-146-110-164-118-265-118-103,0-131,12-274,120-524,392-795,837-722,1185c44,211,203,381,411,441c76,22,212,24,290,4Z"/>
  </g>
</svg>
