<?xml version="1.0" standalone="no"?>
<svg version="1.0" xmlns="http://www.w3.org/2000/svg"
 width="512.000000pt" height="512.000000pt" viewBox="0 0 512.000000 512.000000"
 preserveAspectRatio="xMidYMid meet">

<g transform="translate(0.000000,512.000000) scale(0.100000,-0.100000)"
fill="#000000" stroke="none">
<path d="M2330 4466 c-241 -32 -409 -83 -625 -191 -383 -192 -666 -474 -861
-860 -351 -695 -241 -1533 280 -2127 247 -283 603 -499 971 -589 661 -162
1343 27 1820 505 752 754 752 1955 0 2712 -283 285 -636 467 -1050 539 -125
22 -404 28 -535 11z m-55 -1161 c86 -22 175 -68 234 -121 l51 -46 51 46 c129
116 339 165 513 120 196 -50 359 -213 411 -410 24 -87 22 -244 -4 -338 -78
-282 -341 -617 -696 -883 -146 -110 -164 -118 -265 -118 -103 0 -131 12 -274
120 -524 392 -795 837 -722 1185 44 211 203 381 411 441 76 22 212 24 290 4z"/>
</g>
</svg>
