<svg id="efnO8WZQBiL1" xmlns="http://www.w3.org/2000/svg" xmlns:xlink="http://www.w3.org/1999/xlink" viewBox="0 0 512 512" shape-rendering="geometricPrecision" text-rendering="geometricPrecision" project-id="d788392bb3364741ba3ba7b24c2a5926" export-id="a177f6bba84e48beb4b0b974dc506a80" cached="false">
  <g transform="matrix(.1 0 0-.1 0 512)">
    <ellipse rx="196.801792" ry="196.801792" transform="matrix(9.04195 0 0 9.04195 2560 2561.227787)" fill="#fff" stroke-width="0"/>
    <path d="M2380,4794c-196-18-455-78-628-145-673-264-1188-845-1361-1535-53-211-65-318-65-554s12-343,65-554C586,1227,1210,599,1990,396c221-57,327-70,570-70c236,0,343,12,554,65c779,195,1407,819,1610,1599c57,221,70,327,70,570s-13,349-70,570c-223,858-945,1507-1829,1645-97,15-425,27-515,19Zm483-664c314-61,597-212,823-438c236-236,385-518,451-857c27-138,24-435-6-575-70-331-212-598-440-828-232-232-519-383-856-449-138-27-435-24-575,6-331,70-598,212-828,440-228,228-380,512-444,834-32,161-32,433,0,594c64,322,213,602,440,829c258,258,584,418,946,464c115,14,366,4,489-20Z" transform="matrix(1.027244 0 0 1.027244-69.74464-69.779473)" fill="#fff"/>
    <path d="M2380,4794c-196-18-455-78-628-145-673-264-1188-845-1361-1535-53-211-65-318-65-554s12-343,65-554C586,1227,1210,599,1990,396c221-57,327-70,570-70c236,0,343,12,554,65c779,195,1407,819,1610,1599c57,221,70,327,70,570s-13,349-70,570c-223,858-945,1507-1829,1645-97,15-425,27-515,19Zm483-664c314-61,597-212,823-438c236-236,385-518,451-857c27-138,24-435-6-575-70-331-212-598-440-828-232-232-519-383-856-449-138-27-435-24-575,6-331,70-598,212-828,440-228,228-380,512-444,834-32,161-32,433,0,594c64,322,213,602,440,829c258,258,584,418,946,464c115,14,366,4,489-20Z"/>
    <path d="M2420,3834c-298-38-551-162-761-373-188-189-299-392-355-651-26-119-26-381,0-500c55-257,169-466,355-651c185-186,394-300,651-355c119-26,381-26,500,0c259,56,462,167,651,355c186,185,300,394,355,651c26,119,26,381,0,500-55,257-169,466-355,651-185,185-380,293-631,350-83,19-331,33-410,23Zm255-509c54-31,76-60,151-200c81-152,149-219,309-305c144-78,176-104,205-172c37-87,12-201-58-260-16-14-83-53-148-89-158-85-227-153-308-304-75-140-97-169-150-200-89-52-200-39-275,34-20,20-66,90-102,156-88,164-144,223-289,300-156,84-190,111-222,174-37,72-37,130,0,202c32,63,66,90,222,174c145,77,201,136,289,300c36,66,82,136,102,156c74,72,186,86,274,34Z"/>
    <path d="M2420,3834c-298-38-551-162-761-373-188-189-299-392-355-651-26-119-26-381,0-500c55-257,169-466,355-651c185-186,394-300,651-355c119-26,381-26,500,0c259,56,462,167,651,355c186,185,300,394,355,651c26,119,26,381,0,500-55,257-169,466-355,651-185,185-380,293-631,350-83,19-331,33-410,23Zm255-509c54-31,76-60,151-200c81-152,149-219,309-305c144-78,176-104,205-172c37-87,12-201-58-260-16-14-83-53-148-89-158-85-227-153-308-304-75-140-97-169-150-200-89-52-200-39-275,34-20,20-66,90-102,156-88,164-144,223-289,300-156,84-190,111-222,174-37,72-37,130,0,202c32,63,66,90,222,174c145,77,201,136,289,300c36,66,82,136,102,156c74,72,186,86,274,34Z"/>
  </g>
</svg>
